<svg width="454" height="279" viewBox="0 0 454 279" fill="none" xmlns="http://www.w3.org/2000/svg">
<g filter="url(#filter0_g_1004_44005)">
<path d="M440.372 83.424C436.793 69.5947 432.835 63.6351 422.388 53.7508C410.213 42.2266 394.967 37.7178 379.146 33.2653C345.156 23.6826 304.731 17.523 269.638 13.4849C268.768 13.3852 266.977 13.1652 266.977 13.1652L263.547 12.1838L260.132 11.2768L227.281 8.00006C211.077 9.28468 194.842 10.3437 178.597 11.2038C149.448 6.3943 118.225 12.4002 93.1403 27.9994C75.4432 35.5582 59.0412 45.0621 43.9492 56.508C27.0223 73.5408 20.315 100.551 14.6284 123.502C9.76175 143.146 5.15071 169.757 10.1738 188.964C10.2014 191.432 10.2028 193.998 10.2046 196.642L14.4397 217.278C23.4098 243.9 43.5481 265.324 73.128 268.545L76.6593 268.439C79.2629 269.157 78.6562 268.911 80.3824 269.268C82.4386 269.727 83.122 269.896 85.4199 270.027C92.1442 270.425 128.719 271.222 135.199 269.752C136.453 269.464 136.844 269.786 139.937 270.032C139.937 270.032 141.559 269.73 143.254 270.233L146.815 270.198C171.977 268.528 197.077 266.33 222.145 263.598L233.105 264.611C259.483 261.64 286.182 258.124 313.204 254.078L318.096 253.523C318.096 253.523 321.958 253.148 323.748 253.29L332.778 253.633L339.044 253.599L367.12 247.837C378.735 244.217 389.101 232.025 396.453 222.306C406.025 207.525 415.988 190.128 423.646 174.224C427.956 165.269 442.461 135.005 442.687 126.919C442.687 126.919 443.131 125.545 443.048 125.593C443.048 125.593 443.664 124.229 444.042 122.683C444.318 121.544 444.692 120.354 444.692 120.354C444.692 120.354 445.252 117.889 445.359 116.909C446.203 109.051 442.471 91.543 440.372 83.424ZM374.584 118.756C368.893 125.876 355.57 136.758 355.57 136.758C353.482 138.701 352.674 139.13 350.778 139.751L340.924 142.021C336.282 142.587 333.686 143.862 328.7 142.674C307.71 140.364 295.739 126.294 289.2 108.202C285.369 97.5934 287.259 88.8877 290.236 78.5521C293.714 66.4439 302.185 57.9645 312.795 50.8708C317.536 47.7024 323.171 47.4582 328.549 46.4935C330.948 46.666 333.171 47.1839 335.247 48.0411C354.872 49.4248 355.639 52.5605 372.477 67.0085C378.439 72.1238 379.769 80.3386 382.052 87.1677C386.293 99.8562 382.11 109.357 374.602 118.767L374.584 118.756Z" fill="#35D6D4" fill-opacity="0.85"/>
</g>
<defs>
<filter id="filter0_g_1004_44005" x="0" y="0" width="453.482" height="278.603" filterUnits="userSpaceOnUse" color-interpolation-filters="sRGB">
<feFlood flood-opacity="0" result="BackgroundImageFix"/>
<feBlend mode="normal" in="SourceGraphic" in2="BackgroundImageFix" result="shape"/>
<feTurbulence type="fractalNoise" baseFrequency="0.99900001287460327 0.99900001287460327" numOctaves="3" seed="3053" />
<feDisplacementMap in="shape" scale="16" xChannelSelector="R" yChannelSelector="G" result="displacedImage" width="100%" height="100%" />
<feMerge result="effect1_texture_1004_44005">
<feMergeNode in="displacedImage"/>
</feMerge>
</filter>
</defs>
</svg>
