<svg width="885" height="768" viewBox="0 0 885 768" fill="none" xmlns="http://www.w3.org/2000/svg">
<g filter="url(#filter0_g_1360_1305)">
<path d="M519.734 14.2758C433.547 14.3901 347.22 14.4625 260.799 14.507C243.368 14.1454 232.712 14.1306 217.759 14.989C195.392 13.5984 174.964 13.0892 154.428 12.1646C132.438 15.0277 133.973 14.0764 118.2 13.6437C87.1008 11.7858 58.0255 13.8006 27.4839 17.4006L21.4224 20.6913C15.1288 28.5665 12.0542 38.5212 12.1683 50.5721C17.0436 79.5289 18.2815 108.251 15.8517 136.755C19.9214 234.328 22.5829 331.994 23.8057 429.771C28.4805 437.728 29.0455 446.615 25.5479 456.444C27.9228 533.315 29.114 610.04 29.1519 686.602C29.6151 695.228 36.4177 752.652 46.9931 754.407C48.7243 754.69 55.6422 755.156 55.6422 755.156L61.679 754.798L69.6295 753.244C89.9566 747.101 111.001 743.804 132.698 743.309C171.415 732.903 210.84 727.361 251.037 726.726C261.278 725.033 279.746 720.333 286.763 718.22L309.316 715.524C342.18 713.15 373.898 707.214 404.442 697.734L410.876 696.292C410.876 696.292 414.232 696.444 418.224 696.17L427.595 695.344C478.967 685.801 530.12 680.796 582.427 675.954C621.706 677.987 660.453 666.619 699.354 663.018C728.315 656.725 756.569 648.33 784.055 637.867C784.055 637.867 796.605 626.043 796.074 613.587C800.948 599.538 800.428 591.969 802.056 577.315C804.908 555.763 808.614 539.271 812.076 515.139C821.851 467.694 828.16 420.039 831.017 372.128C845.838 281.384 858.528 189.548 866.468 97.6073C883.762 46.8692 864.53 6.64976 805.923 13.689C710.699 13.9358 615.317 14.1101 519.764 14.2593L519.734 14.2758Z" fill="#F6008F" fill-opacity="0.9"/>
</g>
<defs>
<filter id="filter0_g_1360_1305" x="0.000445366" y="-4.29153e-05" width="884.736" height="767.321" filterUnits="userSpaceOnUse" color-interpolation-filters="sRGB">
<feFlood flood-opacity="0" result="BackgroundImageFix"/>
<feBlend mode="normal" in="SourceGraphic" in2="BackgroundImageFix" result="shape"/>
<feTurbulence type="fractalNoise" baseFrequency="0.6576462984085083 0.6576462984085083" numOctaves="3" seed="3053" />
<feDisplacementMap in="shape" scale="24.329187393188477" xChannelSelector="R" yChannelSelector="G" result="displacedImage" width="100%" height="100%" />
<feMerge result="effect1_texture_1360_1305">
<feMergeNode in="displacedImage"/>
</feMerge>
</filter>
</defs>
</svg>
