<svg width="141" height="137" viewBox="0 0 141 137" fill="none" xmlns="http://www.w3.org/2000/svg">
<g filter="url(#filter0_g_1395_2780)">
<path d="M128.827 80.157C127.793 92.0689 123.71 103.163 115.645 112.221C107.829 120.996 100.267 124.766 89.1132 127.34C83.4889 128.638 81.0687 128.863 75.3421 128.225C68.1842 127.426 58.6237 125.349 51.6879 123.33C42.6644 120.707 32.5731 116.138 26.5688 108.499C23.5083 104.607 23.6428 104.047 28.1018 102.096C38.6076 97.3153 49.2473 92.5609 60.0139 87.8375C62.0895 88.7179 63.9095 90.098 65.4634 91.9698C84.771 102.634 103.732 87.8925 96.48 66.7554C92.6019 55.442 78.3528 35.1239 65.8354 40.234L64.4207 40.9711L59.3618 43.8803C53.8975 47.7737 47.8995 49.7466 47.8995 49.7466C46.9892 51.514 44.4232 52.8163 44.4232 52.8163L43.2767 53.7876L42.5589 54.1782C32.1798 59.2983 25.3361 66.7339 14.4963 71.461C13.1732 72.1315 12.5422 71.5598 11.8003 70.4766C10.7726 65.1959 11.085 59.8646 11.6614 54.543L13.4838 45.2893C16.3473 33.6349 22.0736 24.6965 32.0448 17.3196C43.8849 8.55748 66.8435 5.98908 82.4405 12.856C89.4219 12.5562 100.315 15.1428 105.527 19.833C118.449 31.4584 129.407 58.0592 129.08 75.2796C129.048 76.9176 128.963 78.5454 128.827 80.157Z" fill="#1B1BEA"/>
</g>
<g filter="url(#filter1_g_1395_2780)">
<path d="M38.2854 106.415C37.5273 106.797 36.6881 107.083 36.0405 107.431L32.895 109.136L30.7517 110.174C29.6344 110.715 28.6916 111.251 27.5703 111.76C26.599 112.203 25.5343 112.511 24.6036 112.986L21.8333 114.401C20.694 114.985 19.6812 115.495 18.4465 116C18.2339 116.087 17.8478 116.163 17.4517 116.221C16.8393 116.313 16.3259 115.761 16.4546 115.158L17.0181 112.506L17.6921 110.506C17.6921 110.506 18.3925 108.194 18.7076 106.985L20.2521 101.082L21.2926 96.9933C21.6947 95.415 22.215 94.0004 22.5928 92.431L23.674 87.9233C24.1336 86.0137 24.8901 84.128 25.3412 82.2417C25.7965 80.3438 27.863 74.3961 28.3472 73.0078C28.4102 72.8292 28.455 72.6454 28.4839 72.4581C28.5663 71.9079 28.8103 70.6214 29.3872 70.1311C30.3631 69.2947 31.147 70.0595 32.0711 70.3822C34.8923 71.369 37.4045 72.6179 40.0842 73.7918L44.3461 75.6592C45.3536 76.1003 46.1716 76.547 47.2172 77.0284L56.1091 81.1221C58.1453 82.0586 59.9877 83.1466 62.0439 84.0858L65.3654 85.6012L68.7802 87.4777C69.2424 87.7299 69.9905 88.1509 70.564 88.4751C70.9671 88.7017 71.0314 89.2609 70.6845 89.5626C70.0134 90.1486 69.0723 90.7945 68.0618 91.4514L64.9256 93.035C62.7803 94.119 62.0996 94.5207 59.8573 95.6405L50.9574 100.076L47.4192 101.833L45.0954 103.025L41.9335 104.576L38.2804 106.412L38.2854 106.415Z" fill="#1B1BEA"/>
</g>
<defs>
<filter id="filter0_g_1395_2780" x="3.12756" y="0.934746" width="133.96" height="135.634" filterUnits="userSpaceOnUse" color-interpolation-filters="sRGB">
<feFlood flood-opacity="0" result="BackgroundImageFix"/>
<feBlend mode="normal" in="SourceGraphic" in2="BackgroundImageFix" result="shape"/>
<feTurbulence type="fractalNoise" baseFrequency="0.99900001287460327 0.99900001287460327" numOctaves="3" seed="3053" />
<feDisplacementMap in="shape" scale="16" xChannelSelector="R" yChannelSelector="G" result="displacedImage" width="100%" height="100%" />
<feMerge result="effect1_texture_1395_2780">
<feMergeNode in="displacedImage"/>
</feMerge>
</filter>
<filter id="filter1_g_1395_2780" x="8.43469" y="61.7527" width="70.4751" height="62.4779" filterUnits="userSpaceOnUse" color-interpolation-filters="sRGB">
<feFlood flood-opacity="0" result="BackgroundImageFix"/>
<feBlend mode="normal" in="SourceGraphic" in2="BackgroundImageFix" result="shape"/>
<feTurbulence type="fractalNoise" baseFrequency="0.99900001287460327 0.99900001287460327" numOctaves="3" seed="3053" />
<feDisplacementMap in="shape" scale="16" xChannelSelector="R" yChannelSelector="G" result="displacedImage" width="100%" height="100%" />
<feMerge result="effect1_texture_1395_2780">
<feMergeNode in="displacedImage"/>
</feMerge>
</filter>
</defs>
</svg>
